<?xml version="1.0" standalone="no"?>
<!DOCTYPE svg PUBLIC "-//W3C//DTD SVG 20010904//EN"
 "http://www.w3.org/TR/2001/REC-SVG-20010904/DTD/svg10.dtd">
<svg version="1.0" xmlns="http://www.w3.org/2000/svg"
 width="844.000000pt" height="844.000000pt" viewBox="0 0 844.000000 844.000000"
 preserveAspectRatio="xMidYMid meet">
<metadata>
Created by potrace 1.11, written by Peter Selinger 2001-2013
</metadata>
<g transform="translate(0.000000,844.000000) scale(0.100000,-0.100000)"
fill="#000000" stroke="none">
<path d="M3699 5856 c-2 -2 -67 -7 -144 -10 -77 -3 -149 -8 -160 -10 -18 -3
-76 -10 -195 -21 -72 -7 -136 -15 -172 -20 -18 -2 -81 -11 -139 -20 -152 -22
-263 -42 -423 -76 -78 -17 -150 -32 -161 -34 -87 -19 -506 -146 -646 -196 -79
-28 -181 -64 -226 -80 -70 -25 -101 -30 -205 -34 -68 -2 -213 -7 -323 -10
-110 -4 -216 -8 -235 -10 -168 -15 -316 -39 -366 -60 -103 -43 -149 -139 -169
-355 -3 -30 -7 -73 -10 -95 -2 -22 -13 -62 -25 -88 -16 -35 -20 -60 -16 -89 7
-49 5 -47 51 -62 41 -14 117 -5 143 16 41 35 79 213 62 293 -16 76 9 91 185
111 17 2 120 6 230 9 110 3 272 7 360 10 l160 4 160 61 c155 60 492 175 538
184 12 3 54 14 92 26 39 11 88 25 110 30 54 11 75 16 121 29 89 23 151 37 204
46 14 2 36 7 50 10 14 3 39 8 55 11 17 3 41 7 55 10 14 2 52 8 85 14 33 5 71
12 84 15 13 2 49 7 80 10 31 3 67 7 81 9 66 12 173 23 295 31 33 2 98 7 145
11 329 24 854 15 1120 -21 25 -4 59 -8 75 -10 39 -5 127 -18 140 -21 6 -1 26
-4 45 -7 39 -7 185 -41 213 -51 9 -3 25 -9 35 -13 9 -3 19 -7 22 -8 35 -9 225
-85 317 -126 24 -10 48 -19 53 -19 6 0 29 -9 50 -20 22 -11 40 -18 40 -14 0 4
6 2 13 -4 6 -6 71 -33 142 -62 72 -28 144 -57 160 -64 17 -8 50 -21 75 -31 25
-10 63 -26 85 -36 22 -9 96 -41 165 -69 69 -29 145 -61 168 -72 162 -72 188
-79 325 -84 73 -2 142 -6 154 -9 12 -3 68 -8 124 -11 57 -3 106 -7 110 -9 3
-3 33 -7 65 -10 80 -8 129 -14 194 -25 30 -5 75 -12 100 -15 24 -4 47 -8 50
-10 3 -2 26 -6 50 -10 25 -4 79 -16 120 -27 41 -11 86 -22 99 -24 54 -11 269
-88 355 -129 50 -23 129 -67 176 -98 66 -44 88 -53 102 -46 21 11 22 28 7 84
-10 39 -57 145 -69 155 -18 15 -48 69 -55 98 -18 85 -118 141 -390 221 -115
34 -366 86 -515 106 -25 3 -52 8 -60 10 -8 2 -51 7 -95 11 -44 3 -82 8 -85 9
-7 4 -154 14 -307 20 -105 4 -173 15 -212 35 -22 11 -252 109 -531 227 -58 24
-114 48 -125 53 -38 17 -151 63 -325 132 -200 78 -199 78 -260 106 -121 54
-414 137 -555 156 -22 3 -65 10 -95 15 -54 9 -89 14 -220 26 -36 4 -78 9 -95
11 -35 6 -681 15 -686 10z"/>
<path d="M1306 4798 c-27 -21 -237 -863 -223 -896 l10 -22 336 0 c193 1 355 5
381 11 25 6 54 12 65 15 39 8 124 55 154 86 38 39 71 124 71 184 0 70 -24 111
-87 146 -29 16 -51 34 -48 39 3 5 23 16 43 26 54 25 136 112 150 160 37 123
-5 209 -120 244 -18 6 -186 13 -373 16 -283 4 -343 2 -359 -9z m476 -187 c34
-13 51 -44 43 -80 -13 -61 -78 -89 -197 -85 -91 3 -91 3 -72 89 4 22 8 42 9
45 0 3 6 14 12 26 11 18 20 20 95 18 46 -1 95 -7 110 -13z m-39 -368 c15 -7
28 -21 28 -31 6 -67 -17 -108 -72 -128 -50 -18 -238 -18 -245 0 -6 16 24 145
38 163 14 18 214 15 251 -4z"/>
<path d="M6353 4742 c-12 -2 -26 -9 -31 -15 -14 -18 -42 -152 -37 -178 7 -35
18 -40 76 -37 46 3 56 7 66 28 16 35 26 85 27 145 l1 50 -40 5 c-22 3 -50 4
-62 2z"/>
<path d="M2401 4558 l-29 -8 -71 -290 c-86 -350 -86 -353 -67 -369 23 -19 273
-11 285 8 5 8 23 73 41 145 36 150 54 202 79 233 29 35 97 65 164 72 34 4 67
10 74 14 6 4 14 35 18 69 4 35 9 70 10 78 1 8 -1 26 -6 39 -8 21 -14 23 -58
19 -26 -3 -74 -15 -105 -29 -53 -22 -59 -22 -70 -7 -7 9 -24 20 -38 23 -38 10
-192 11 -227 3z"/>
<path d="M3285 4551 c-103 -28 -154 -59 -230 -137 -63 -64 -66 -69 -92 -126
-28 -58 -39 -159 -24 -215 23 -83 115 -168 207 -189 68 -15 240 -15 311 0 182
38 322 154 372 307 18 56 20 139 4 184 -15 45 -70 110 -118 142 -78 51 -300
69 -430 34z m223 -205 c56 -55 28 -190 -53 -252 -29 -22 -48 -28 -89 -28 -69
-1 -101 17 -114 63 -28 92 39 224 123 244 45 10 109 -3 133 -27z"/>
<path d="M4008 4539 c-22 -12 -18 -51 32 -309 10 -52 21 -106 23 -120 3 -14
13 -65 22 -115 9 -49 21 -94 26 -100 12 -12 225 -16 256 -4 16 6 123 166 123
184 0 14 80 130 90 130 16 0 18 -10 30 -140 11 -114 18 -155 31 -171 13 -16
252 -12 272 4 18 15 87 123 230 363 38 63 86 141 107 174 41 63 48 90 28 97
-7 3 -58 5 -112 5 -97 1 -101 0 -125 -27 -14 -15 -55 -85 -91 -154 -65 -126
-103 -186 -114 -176 -3 3 -7 35 -10 70 -3 36 -8 109 -12 163 -4 53 -12 104
-18 112 -9 12 -37 16 -126 17 -63 1 -125 -2 -137 -6 -26 -8 -40 -29 -115 -175
-33 -64 -67 -128 -75 -143 -17 -32 -29 -36 -37 -10 -7 25 -33 221 -35 273 -2
56 -19 64 -139 65 -60 1 -116 -2 -124 -7z"/>
<path d="M5907 4538 c-38 -5 -97 -19 -131 -33 -72 -29 -86 -30 -86 -11 0 29
-29 38 -127 39 -135 1 -143 -3 -158 -70 -2 -10 -11 -49 -20 -88 -9 -38 -17
-79 -19 -90 -2 -11 -15 -69 -29 -130 -47 -197 -54 -249 -36 -260 13 -9 198
-14 236 -7 24 5 47 55 58 132 7 47 38 159 54 194 32 74 103 123 169 119 6 0
20 -1 30 -2 24 -1 43 -36 44 -79 0 -21 -12 -90 -27 -155 -30 -135 -36 -180
-25 -197 6 -9 39 -14 106 -14 153 -3 156 -2 169 61 2 10 10 47 19 83 8 36 17
76 20 90 2 14 14 67 26 119 26 116 27 168 6 212 -15 32 -60 68 -96 77 -50 12
-124 16 -183 10z"/>
<path d="M6728 4535 c-2 -2 -24 -5 -51 -8 -98 -12 -183 -83 -194 -163 -11 -80
5 -107 121 -208 31 -27 56 -57 56 -67 0 -40 -90 -57 -188 -34 -30 7 -61 11
-69 8 -21 -8 -34 -106 -19 -149 5 -17 19 -23 69 -32 58 -10 243 -10 277 0 108
30 163 66 193 125 36 68 15 141 -57 203 -73 63 -106 98 -106 114 0 29 39 38
137 34 106 -5 108 -4 112 69 5 79 -2 85 -100 98 -49 7 -177 13 -181 10z"/>
<path d="M7590 3879 c-23 -19 -107 -95 -225 -203 -55 -51 -69 -54 -117 -28
-18 11 -58 33 -88 50 -121 69 -170 77 -425 76 -215 -1 -216 -1 -426 -87 -75
-31 -158 -61 -185 -67 -94 -22 -99 -26 -102 -76 -1 -26 -10 -59 -19 -74 -23
-40 -10 -73 42 -111 52 -38 50 -37 168 -43 76 -5 92 -8 109 -28 10 -12 18 -34
17 -48 0 -14 -1 -30 0 -37 2 -24 76 -28 416 -24 112 1 114 1 121 -10 3 -6 8
-78 11 -162 2 -84 6 -177 7 -207 l2 -55 57 2 c31 0 68 1 82 2 l24 1 -5 191
c-3 106 -3 202 0 214 6 25 27 27 324 29 146 0 163 2 168 18 3 10 8 18 12 18 4
0 8 11 8 25 2 33 39 62 89 70 114 18 210 80 197 128 -10 40 -62 94 -105 110
-39 15 -59 19 -139 32 -18 3 -49 8 -68 11 -50 8 -69 11 -122 19 -27 3 -48 11
-48 16 0 6 20 29 44 52 84 81 167 156 193 177 16 12 23 24 17 30 -5 5 -19 0
-34 -11z"/>
<path d="M4625 3717 c-16 -5 -48 -26 -70 -47 -22 -20 -60 -42 -85 -49 -39 -12
-42 -15 -27 -26 20 -14 22 -37 6 -68 -16 -31 -14 -29 -65 -35 -41 -4 -46 -2
-40 13 3 9 2 34 -4 54 -17 64 -96 85 -171 46 -37 -20 -61 -39 -114 -91 -29
-30 -54 -44 -88 -52 -64 -13 -69 -2 -29 75 19 36 20 42 6 54 -27 22 -72 14
-126 -23 -54 -36 -92 -58 -102 -58 -3 0 -6 13 -6 29 0 68 -67 72 -150 8 -70
-55 -100 -66 -100 -40 0 26 -22 54 -45 57 -40 6 -125 -72 -125 -115 0 -31 -18
-45 -65 -50 l-30 -4 -1 55 c0 30 -1 60 -2 66 -3 17 -49 34 -96 34 -57 0 -142
-55 -214 -138 -42 -47 -66 -66 -108 -82 -30 -11 -64 -20 -76 -20 -18 0 -20 4
-15 36 6 38 46 97 75 113 9 5 31 11 47 14 91 15 118 40 65 60 -29 11 -32 22
-16 59 16 36 -5 43 -79 25 -18 -4 -65 -47 -65 -59 0 -20 -65 -77 -94 -84 -70
-15 -114 -54 -61 -54 30 0 32 -20 10 -72 -12 -30 -22 -37 -67 -50 -57 -16 -74
-9 -57 24 5 10 7 18 4 18 -3 0 6 18 21 39 31 47 28 72 -8 85 -32 11 -74 -7
-83 -36 -4 -10 -12 -24 -18 -30 -7 -7 -29 -40 -51 -72 -44 -68 -42 -65 -99
-128 -44 -48 -107 -78 -94 -44 4 10 10 29 13 42 4 14 26 59 50 101 42 74 47
94 31 121 -13 20 -65 14 -85 -10 -9 -12 -34 -40 -55 -62 -30 -33 -37 -47 -33
-68 8 -42 -32 -137 -58 -138 -6 0 -37 -29 -70 -64 -34 -36 -71 -68 -84 -71
-22 -6 -23 -5 -18 57 5 65 6 72 25 148 23 88 31 99 75 110 76 20 106 31 106
41 0 5 -12 9 -27 10 -30 1 -84 6 -95 8 -8 1 11 72 46 168 33 91 33 116 1 141
-21 17 -32 19 -58 11 -27 -8 -113 -61 -127 -79 -3 -4 -27 -23 -53 -43 -27 -21
-45 -37 -41 -37 5 0 -2 -7 -15 -16 -27 -19 -76 -63 -164 -146 -33 -32 -64 -58
-69 -58 -5 0 -7 -4 -4 -8 14 -23 -100 -70 -209 -87 -48 -7 -59 -16 -50 -44 7
-24 60 -55 76 -45 30 18 -21 -71 -76 -132 -5 -7 -28 -33 -50 -59 -64 -75 -78
-90 -107 -108 -33 -21 -38 -21 -38 -2 0 24 -34 17 -55 -11 -47 -62 -48 -123
-3 -171 29 -31 86 -31 119 0 14 12 45 49 69 82 25 33 47 62 50 65 3 3 10 13
15 22 27 47 144 206 177 242 10 11 18 25 18 31 0 6 19 32 43 57 32 35 56 50
97 62 164 47 221 53 225 26 2 -9 -8 -63 -21 -120 -28 -123 -30 -170 -9 -214
18 -37 61 -66 99 -66 32 0 60 28 116 118 25 40 53 75 62 78 11 3 32 -5 51 -20
19 -14 46 -26 61 -26 28 0 40 10 113 93 22 26 46 47 51 47 6 0 13 -13 17 -29
7 -34 24 -50 57 -56 32 -6 41 2 74 68 30 63 86 120 112 115 11 -2 17 -17 19
-53 4 -56 25 -85 59 -85 27 0 29 3 86 90 28 41 57 73 83 87 38 22 67 26 65 10
-1 -13 29 -78 43 -90 26 -24 57 -37 90 -37 26 0 45 11 92 55 117 108 157 135
201 135 20 0 24 -5 24 -30 0 -50 24 -97 54 -102 31 -6 44 7 81 84 55 114 129
152 124 64 -3 -70 0 -85 24 -100 35 -23 61 -10 82 40 10 25 35 63 56 85 20 21
34 39 31 39 -4 0 4 7 16 16 36 25 56 11 47 -34 -17 -89 0 -135 48 -130 27 2
37 12 62 55 33 57 115 116 115 83 0 -22 46 -79 75 -93 58 -27 97 -15 173 54
38 36 87 62 133 74 25 6 27 4 34 -34 13 -80 66 -96 112 -34 15 21 37 46 48 55
23 20 104 50 107 40 0 -4 2 -11 3 -17 2 -5 3 -20 4 -31 1 -29 31 -64 56 -68
21 -4 60 12 52 21 -8 7 44 63 73 78 14 7 39 16 56 19 30 7 32 5 38 -31 8 -50
17 -63 49 -68 21 -4 33 2 59 31 50 56 68 73 125 115 60 45 65 52 57 73 -9 23
-47 20 -64 -5 -32 -45 -92 -99 -111 -99 -18 0 -20 6 -17 63 3 58 2 62 -20 65
-27 4 -62 -27 -62 -56 0 -37 -23 -52 -88 -58 -69 -7 -72 -3 -42 58 17 36 7 58
-27 58 -44 0 -124 -63 -115 -90 3 -8 1 -12 -3 -8 -5 4 -14 3 -21 -3 -7 -5 -35
-14 -64 -18 -61 -10 -70 0 -45 53 16 33 33 47 65 51 46 6 90 17 90 23 0 12
-17 34 -26 35 -5 1 -8 12 -6 24 4 29 -24 43 -63 30z m-2809 -140 c4 -13 -30
-128 -59 -199 -14 -32 -37 -43 -137 -61 -83 -15 -100 -13 -100 11 0 26 253
262 281 262 5 0 12 -6 15 -13z m2457 -34 c16 -30 -59 -134 -111 -154 -46 -18
-55 -12 -49 30 5 43 26 72 77 107 34 23 75 32 83 17z m-1148 -100 c-4 -45 -20
-75 -69 -129 -88 -100 -174 -71 -107 36 41 65 110 117 157 119 18 1 21 -4 19
-26z"/>
<path d="M4897 3715 c-25 -25 -11 -44 30 -40 35 3 56 20 50 40 -6 17 -63 17
-80 0z"/>
<path d="M5375 3590 c-73 -16 -123 -59 -129 -108 -5 -36 13 -61 63 -87 52 -26
89 -22 154 18 33 20 72 39 87 42 35 8 61 34 36 36 -9 1 -22 2 -28 3 -7 1 -13
10 -13 21 -2 62 -78 96 -170 75z"/>
<path d="M5423 3098 l-33 -9 0 -104 c0 -89 3 -106 18 -113 31 -17 92 2 92 28
0 11 7 19 18 19 9 1 51 2 92 4 78 4 106 -3 128 -35 10 -14 24 -18 50 -16 l37
3 1 65 c1 36 3 70 4 75 7 29 -3 56 -27 72 -22 15 -52 18 -187 19 -89 0 -176
-3 -193 -8z m280 -54 c18 -7 23 -39 7 -49 -13 -8 -155 -14 -179 -8 -22 6 -36
44 -20 54 15 9 171 12 192 3z"/>
<path d="M4308 3092 c-114 -2 -129 -5 -138 -22 -10 -19 -6 -192 5 -210 13 -21
72 -10 101 18 28 27 35 28 129 30 55 2 115 5 133 9 42 7 72 45 67 86 -9 87
-35 95 -297 89z m183 -69 c6 -6 8 -20 4 -32 -7 -22 -15 -24 -130 -24 -67 -1
-85 7 -85 37 0 19 6 25 28 28 59 7 172 2 183 -9z"/>
<path d="M4824 3090 c-19 -7 -124 -131 -124 -146 0 -4 -9 -14 -19 -23 -11 -10
-22 -28 -26 -42 -6 -23 -3 -25 33 -27 27 -2 47 4 67 20 25 20 41 22 144 24 93
2 119 -1 133 -13 10 -9 40 -18 68 -21 62 -6 66 10 16 62 -18 20 -32 36 -29 36
3 0 -27 34 -90 103 -25 27 -36 31 -90 33 -34 1 -71 -2 -83 -6z m105 -86 c35
-45 28 -54 -39 -54 -52 0 -59 2 -53 18 9 24 44 62 59 62 7 0 22 -12 33 -26z"/>
<path d="M5238 3093 c-10 -2 -19 -12 -19 -21 -3 -39 2 -159 7 -185 5 -26 9
-28 50 -26 48 3 46 1 46 79 0 87 -3 126 -10 138 -9 14 -47 22 -74 15z"/>
<path d="M3278 3080 c-75 -3 -140 -8 -144 -12 -7 -8 -8 -169 0 -203 2 -11 5
-23 5 -27 1 -5 19 -8 41 -8 33 0 43 5 58 28 18 29 47 36 147 35 90 -1 97 -3
102 -22 6 -22 40 -40 68 -34 11 2 26 5 33 5 15 2 15 12 1 61 -7 25 -7 43 -1
50 16 20 18 63 3 90 -20 38 -81 45 -313 37z m187 -64 c40 -10 33 -43 -12 -55
-48 -14 -190 -14 -198 -1 -17 27 -13 50 8 55 56 12 156 12 202 1z"/>
<path d="M3713 3078 c-2 -5 -9 -6 -14 -3 -5 4 -12 -1 -15 -9 -16 -43 -5 -213
16 -226 17 -11 360 -1 382 11 43 23 0 34 -131 35 -70 0 -133 4 -139 8 -16 10
-15 36 1 37 6 0 21 2 31 4 11 2 64 5 118 6 65 2 102 7 109 16 15 17 -14 23
-142 27 -58 2 -111 6 -118 10 -12 8 -15 35 -3 37 9 2 140 7 202 8 57 2 79 13
61 35 -10 12 -42 14 -183 13 -93 -1 -172 -5 -175 -9z"/>
</g>
</svg>
